<svg xmlns="http://www.w3.org/2000/svg" width="1320" height="850" viewBox="0 0 1320 850" role="img" aria-label="Solve rate versus mean attempt cost"><rect x="0" y="0" width="1320" height="850" fill="#FFFFFF"/><text x="28.0" y="48.0" text-anchor="start" fill="#252A31" font-family="Arial, Helvetica, sans-serif" font-size="28" font-weight="700">Solve rate versus mean attempt cost</text><text x="28.0" y="80.0" text-anchor="start" fill="#5D6670" font-family="Arial, Helvetica, sans-serif" font-size="16" font-weight="400">41 configurations; reported-price Pareto frontier families: GPT-5.6 Luna, GPT-5.6 Sol, GPT-5.6 Terra.</text><line x1="120.0" y1="160.0" x2="120.0" y2="735.0" stroke="#E5E8EB" stroke-width="1"/><text x="120.0" y="769.0" text-anchor="middle" fill="#252A31" font-family="Arial, Helvetica, sans-serif" font-size="16" font-weight="400">0%</text><line x1="402.5" y1="160.0" x2="402.5" y2="735.0" stroke="#E5E8EB" stroke-width="1"/><text x="402.5" y="769.0" text-anchor="middle" fill="#252A31" font-family="Arial, Helvetica, sans-serif" font-size="16" font-weight="400">20%</text><line x1="685.0" y1="160.0" x2="685.0" y2="735.0" stroke="#E5E8EB" stroke-width="1"/><text x="685.0" y="769.0" text-anchor="middle" fill="#252A31" font-family="Arial, Helvetica, sans-serif" font-size="16" font-weight="400">40%</text><line x1="967.5" y1="160.0" x2="967.5" y2="735.0" stroke="#E5E8EB" stroke-width="1"/><text x="967.5" y="769.0" text-anchor="middle" fill="#252A31" font-family="Arial, Helvetica, sans-serif" font-size="16" font-weight="400">60%</text><line x1="1250.0" y1="160.0" x2="1250.0" y2="735.0" stroke="#E5E8EB" stroke-width="1"/><text x="1250.0" y="769.0" text-anchor="middle" fill="#252A31" font-family="Arial, Helvetica, sans-serif" font-size="16" font-weight="400">80%</text><line x1="120.0" y1="672.7" x2="1250.0" y2="672.7" stroke="#E5E8EB" stroke-width="1"/><text x="102.0" y="678.7" text-anchor="end" fill="#252A31" font-family="Arial, Helvetica, sans-serif" font-size="16" font-weight="400">$0.10</text><line x1="120.0" y1="590.3" x2="1250.0" y2="590.3" stroke="#E5E8EB" stroke-width="1"/><text x="102.0" y="596.3" text-anchor="end" fill="#252A31" font-family="Arial, Helvetica, sans-serif" font-size="16" font-weight="400">$0.25</text><line x1="120.0" y1="528.0" x2="1250.0" y2="528.0" stroke="#E5E8EB" stroke-width="1"/><text x="102.0" y="534.0" text-anchor="end" fill="#252A31" font-family="Arial, Helvetica, sans-serif" font-size="16" font-weight="400">$0.50</text><line x1="120.0" y1="465.7" x2="1250.0" y2="465.7" stroke="#E5E8EB" stroke-width="1"/><text x="102.0" y="471.7" text-anchor="end" fill="#252A31" font-family="Arial, Helvetica, sans-serif" font-size="16" font-weight="400">$1</text><line x1="120.0" y1="403.4" x2="1250.0" y2="403.4" stroke="#E5E8EB" stroke-width="1"/><text x="102.0" y="409.4" text-anchor="end" fill="#252A31" font-family="Arial, Helvetica, sans-serif" font-size="16" font-weight="400">$2</text><line x1="120.0" y1="321.1" x2="1250.0" y2="321.1" stroke="#E5E8EB" stroke-width="1"/><text x="102.0" y="327.1" text-anchor="end" fill="#252A31" font-family="Arial, Helvetica, sans-serif" font-size="16" font-weight="400">$5</text><line x1="120.0" y1="258.8" x2="1250.0" y2="258.8" stroke="#E5E8EB" stroke-width="1"/><text x="102.0" y="264.8" text-anchor="end" fill="#252A31" font-family="Arial, Helvetica, sans-serif" font-size="16" font-weight="400">$10</text><line x1="120.0" y1="176.4" x2="1250.0" y2="176.4" stroke="#E5E8EB" stroke-width="1"/><text x="102.0" y="182.4" text-anchor="end" fill="#252A31" font-family="Arial, Helvetica, sans-serif" font-size="16" font-weight="400">$25</text><line x1="120.0" y1="735.0" x2="1250.0" y2="735.0" stroke="#252A31" stroke-width="2"/><line x1="120.0" y1="160.0" x2="120.0" y2="735.0" stroke="#252A31" stroke-width="2"/><text x="685.0" y="816.0" text-anchor="middle" fill="#252A31" font-family="Arial, Helvetica, sans-serif" font-size="19" font-weight="400">Attempt solve rate</text><text x="29.0" y="447.5" text-anchor="middle" fill="#252A31" font-family="Arial, Helvetica, sans-serif" font-size="19" font-weight="400" transform="rotate(-90 29 447.5)">Mean attempt cost (USD, log scale)</text><path d="M 141.9 701.7 L 279.4 603.3 L 459.8 542.1 L 615.9 514.2 L 745.0 488.3 L 760.6 459.3 L 879.4 454.4 L 923.1 427.2 L 982.5 409.8 L 1069.0 366.1 L 1100.3 353.9 L 1119.1 326.5 L 1146.4 274.6" fill="none" stroke="#252A31" stroke-width="2.5" stroke-linejoin="round" opacity="0.72"/><circle cx="1089.0" cy="266.5" r="5" fill="#89919A" stroke="white" stroke-width="1" opacity="0.65"/><circle cx="961.6" cy="346.7" r="5" fill="#89919A" stroke="white" stroke-width="1" opacity="0.65"/><circle cx="1104.9" cy="189.4" r="5" fill="#89919A" stroke="white" stroke-width="1" opacity="0.65"/><circle cx="1043.3" cy="303.4" r="5" fill="#89919A" stroke="white" stroke-width="1" opacity="0.65"/><circle cx="1107.5" cy="232.3" r="5" fill="#89919A" stroke="white" stroke-width="1" opacity="0.65"/><circle cx="851.2" cy="335.0" r="5" fill="#89919A" stroke="white" stroke-width="1" opacity="0.65"/><circle cx="696.3" cy="391.1" r="5" fill="#89919A" stroke="white" stroke-width="1" opacity="0.65"/><circle cx="953.0" cy="233.6" r="5" fill="#89919A" stroke="white" stroke-width="1" opacity="0.65"/><circle cx="807.5" cy="354.6" r="5" fill="#89919A" stroke="white" stroke-width="1" opacity="0.65"/><circle cx="887.9" cy="278.7" r="5" fill="#89919A" stroke="white" stroke-width="1" opacity="0.65"/><circle cx="542.8" cy="312.1" r="5" fill="#89919A" stroke="white" stroke-width="1" opacity="0.65"/><circle cx="801.2" cy="285.5" r="5" fill="#89919A" stroke="white" stroke-width="1" opacity="0.65"/><circle cx="551.0" cy="395.4" r="5" fill="#89919A" stroke="white" stroke-width="1" opacity="0.65"/><circle cx="880.6" cy="171.5" r="5" fill="#89919A" stroke="white" stroke-width="1" opacity="0.65"/><circle cx="681.9" cy="339.4" r="5" fill="#89919A" stroke="white" stroke-width="1" opacity="0.65"/><circle cx="821.6" cy="243.2" r="5" fill="#89919A" stroke="white" stroke-width="1" opacity="0.65"/><circle cx="286.0" cy="263.5" r="5" fill="#89919A" stroke="white" stroke-width="1" opacity="0.65"/><circle cx="648.1" cy="286.5" r="5" fill="#89919A" stroke="white" stroke-width="1" opacity="0.65"/><circle cx="632.5" cy="372.0" r="5" fill="#89919A" stroke="white" stroke-width="1" opacity="0.65"/><circle cx="738.4" cy="342.9" r="5" fill="#89919A" stroke="white" stroke-width="1" opacity="0.65"/><circle cx="851.2" cy="310.0" r="5" fill="#89919A" stroke="white" stroke-width="1" opacity="0.65"/><circle cx="1029.4" cy="319.3" r="5" fill="#89919A" stroke="white" stroke-width="1" opacity="0.65"/><circle cx="501.2" cy="449.3" r="5" fill="#89919A" stroke="white" stroke-width="1" opacity="0.65"/><circle cx="882.5" cy="374.8" r="5" fill="#89919A" stroke="white" stroke-width="1" opacity="0.65"/><circle cx="1066.9" cy="288.0" r="5" fill="#89919A" stroke="white" stroke-width="1" opacity="0.65"/><circle cx="1103.4" cy="322.0" r="5" fill="#89919A" stroke="white" stroke-width="1" opacity="0.65"/><circle cx="970.0" cy="397.9" r="5" fill="#89919A" stroke="white" stroke-width="1" opacity="0.65"/><circle cx="551.2" cy="372.7" r="5" fill="#89919A" stroke="white" stroke-width="1" opacity="0.65"/><circle cx="141.9" cy="701.7" r="7" fill="#D49A27" stroke="white" stroke-width="1.5"/><circle cx="279.4" cy="603.3" r="7" fill="#D49A27" stroke="white" stroke-width="1.5"/><rect x="452.8" y="535.1" width="14" height="14" fill="#C9673B" stroke="white" stroke-width="1.5"/><rect x="608.9" y="507.2" width="14" height="14" fill="#C9673B" stroke="white" stroke-width="1.5"/><circle cx="745.0" cy="488.3" r="7" fill="#D49A27" stroke="white" stroke-width="1.5"/><path d="M 760.6 450.3 L 769.6 459.3 L 760.6 468.3 L 751.6 459.3 Z" fill="#2563A6" stroke="white" stroke-width="1.5"/><rect x="872.4" y="447.4" width="14" height="14" fill="#C9673B" stroke="white" stroke-width="1.5"/><circle cx="923.1" cy="427.2" r="7" fill="#D49A27" stroke="white" stroke-width="1.5"/><path d="M 982.5 400.8 L 991.5 409.8 L 982.5 418.8 L 973.5 409.8 Z" fill="#2563A6" stroke="white" stroke-width="1.5"/><circle cx="1069.0" cy="366.1" r="7" fill="#D49A27" stroke="white" stroke-width="1.5"/><path d="M 1100.3 344.9 L 1109.3 353.9 L 1100.3 362.9 L 1091.3 353.9 Z" fill="#2563A6" stroke="white" stroke-width="1.5"/><path d="M 1119.1 317.5 L 1128.1 326.5 L 1119.1 335.5 L 1110.1 326.5 Z" fill="#2563A6" stroke="white" stroke-width="1.5"/><path d="M 1146.4 265.6 L 1155.4 274.6 L 1146.4 283.6 L 1137.4 274.6 Z" fill="#2563A6" stroke="white" stroke-width="1.5"/><text x="605.9" y="541.2" text-anchor="end" fill="#C9673B" font-family="Arial, Helvetica, sans-serif" font-size="13" font-weight="650">GPT-5.6 Terra [medium]</text><text x="735.0" y="473.3" text-anchor="end" fill="#D49A27" font-family="Arial, Helvetica, sans-serif" font-size="13" font-weight="650">GPT-5.6 Luna [high]</text><text x="869.4" y="481.4" text-anchor="end" fill="#C9673B" font-family="Arial, Helvetica, sans-serif" font-size="13" font-weight="650">GPT-5.6 Terra [high]</text><text x="913.1" y="412.2" text-anchor="end" fill="#D49A27" font-family="Arial, Helvetica, sans-serif" font-size="13" font-weight="650">GPT-5.6 Luna [xhigh]</text><text x="972.5" y="436.8" text-anchor="end" fill="#2563A6" font-family="Arial, Helvetica, sans-serif" font-size="13" font-weight="650">GPT-5.6 Sol [medium]</text><text x="1059.0" y="393.1" text-anchor="end" fill="#D49A27" font-family="Arial, Helvetica, sans-serif" font-size="13" font-weight="650">GPT-5.6 Luna [max]</text><text x="1109.1" y="353.5" text-anchor="end" fill="#2563A6" font-family="Arial, Helvetica, sans-serif" font-size="13" font-weight="650">GPT-5.6 Sol [xhigh]</text><text x="1136.4" y="259.6" text-anchor="end" fill="#2563A6" font-family="Arial, Helvetica, sans-serif" font-size="13" font-weight="650">GPT-5.6 Sol [max]</text><path d="M 120.0 109.0 L 129.0 118.0 L 120.0 127.0 L 111.0 118.0 Z" fill="#2563A6" stroke="white" stroke-width="1.5"/><text x="138.0" y="123.0" text-anchor="start" fill="#252A31" font-family="Arial, Helvetica, sans-serif" font-size="13" font-weight="650">GPT-5.6 Sol</text><circle cx="290.0" cy="118.0" r="7" fill="#D49A27" stroke="white" stroke-width="1.5"/><text x="308.0" y="123.0" text-anchor="start" fill="#252A31" font-family="Arial, Helvetica, sans-serif" font-size="13" font-weight="650">GPT-5.6 Luna</text><rect x="453.0" y="111.0" width="14" height="14" fill="#C9673B" stroke="white" stroke-width="1.5"/><text x="478.0" y="123.0" text-anchor="start" fill="#252A31" font-family="Arial, Helvetica, sans-serif" font-size="13" font-weight="650">GPT-5.6 Terra</text><circle cx="630.0" cy="118" r="5" fill="#89919A" opacity="0.65"/><text x="646.0" y="123.0" text-anchor="start" fill="#252A31" font-family="Arial, Helvetica, sans-serif" font-size="13" font-weight="400">Other configurations</text><text x="120.0" y="840.0" text-anchor="start" fill="#5D6670" font-family="Arial, Helvetica, sans-serif" font-size="13" font-weight="400">Frontier uses observed mean attempt cost and pass rate. Provider price semantics are not harmonized; every highlighted frontier point uses the OpenAI route.</text></svg>
