<svg xmlns="http://www.w3.org/2000/svg" width="1320" height="1000" viewBox="0 0 1320 1000" role="img" aria-label="Realized CPSC and failure-cost composition"><rect x="0" y="0" width="1320" height="1000" fill="#FFFFFF"/><text x="28.0" y="48.0" text-anchor="start" fill="#252A31" font-family="Arial, Helvetica, sans-serif" font-size="28" font-weight="700">Realized CPSC and failure-cost composition</text><text x="28.0" y="80.0" text-anchor="start" fill="#5D6670" font-family="Arial, Helvetica, sans-serif" font-size="16" font-weight="400">One highest-pass-rate configuration per model. Dots show total CPSC; bars split successful-work spend from reliability tax.</text><text x="255.0" y="132.0" text-anchor="start" fill="#252A31" font-family="Arial, Helvetica, sans-serif" font-size="17" font-weight="650">Realized CPSC (USD)</text><text x="830.0" y="132.0" text-anchor="start" fill="#252A31" font-family="Arial, Helvetica, sans-serif" font-size="17" font-weight="650">Share of realized CPSC</text><line x1="255.0" y1="152.0" x2="255.0" y2="920.0" stroke="#E5E8EB" stroke-width="1"/><text x="255.0" y="948.0" text-anchor="middle" fill="#252A31" font-family="Arial, Helvetica, sans-serif" font-size="13" font-weight="400">$0</text><line x1="357.9" y1="152.0" x2="357.9" y2="920.0" stroke="#E5E8EB" stroke-width="1"/><text x="357.9" y="948.0" text-anchor="middle" fill="#252A31" font-family="Arial, Helvetica, sans-serif" font-size="13" font-weight="400">$20</text><line x1="460.8" y1="152.0" x2="460.8" y2="920.0" stroke="#E5E8EB" stroke-width="1"/><text x="460.8" y="948.0" text-anchor="middle" fill="#252A31" font-family="Arial, Helvetica, sans-serif" font-size="13" font-weight="400">$40</text><line x1="563.7" y1="152.0" x2="563.7" y2="920.0" stroke="#E5E8EB" stroke-width="1"/><text x="563.7" y="948.0" text-anchor="middle" fill="#252A31" font-family="Arial, Helvetica, sans-serif" font-size="13" font-weight="400">$60</text><line x1="666.6" y1="152.0" x2="666.6" y2="920.0" stroke="#E5E8EB" stroke-width="1"/><text x="666.6" y="948.0" text-anchor="middle" fill="#252A31" font-family="Arial, Helvetica, sans-serif" font-size="13" font-weight="400">$80</text><text x="830.0" y="948.0" text-anchor="middle" fill="#252A31" font-family="Arial, Helvetica, sans-serif" font-size="13" font-weight="400">0%</text><text x="927.5" y="948.0" text-anchor="middle" fill="#252A31" font-family="Arial, Helvetica, sans-serif" font-size="13" font-weight="400">25%</text><text x="1025.0" y="948.0" text-anchor="middle" fill="#252A31" font-family="Arial, Helvetica, sans-serif" font-size="13" font-weight="400">50%</text><text x="1122.5" y="948.0" text-anchor="middle" fill="#252A31" font-family="Arial, Helvetica, sans-serif" font-size="13" font-weight="400">75%</text><text x="1220.0" y="948.0" text-anchor="middle" fill="#252A31" font-family="Arial, Helvetica, sans-serif" font-size="13" font-weight="400">100%</text><text x="237.0" y="194.2" text-anchor="end" fill="#252A31" font-family="Arial, Helvetica, sans-serif" font-size="14" font-weight="560">GPT-5.6 Luna [max]</text><line x1="255.0" y1="189.2" x2="278.2" y2="189.2" stroke="#DCE9F5" stroke-width="5"/><circle cx="278.2" cy="189.2" r="7" fill="#2563A6"/><text x="289.2" y="194.2" text-anchor="start" fill="#2563A6" font-family="Arial, Helvetica, sans-serif" font-size="13" font-weight="650">$4.51</text><rect x="830" y="179.2" width="266.1" height="20" fill="#2563A6"/><rect x="1096.1" y="179.2" width="123.9" height="20" fill="#D49A27"/><text x="1232.0" y="194.2" text-anchor="start" fill="#80601F" font-family="Arial, Helvetica, sans-serif" font-size="13" font-weight="650">32% tax</text><rect x="18" y="218.5" width="1284" height="58.5" fill="#F7F8F9"/><text x="237.0" y="252.7" text-anchor="end" fill="#252A31" font-family="Arial, Helvetica, sans-serif" font-size="14" font-weight="560">GPT-5.6 Terra [max]</text><line x1="255.0" y1="247.7" x2="291.5" y2="247.7" stroke="#DCE9F5" stroke-width="5"/><circle cx="291.5" cy="247.7" r="7" fill="#2563A6"/><text x="302.5" y="252.7" text-anchor="start" fill="#2563A6" font-family="Arial, Helvetica, sans-serif" font-size="13" font-weight="650">$7.10</text><rect x="830" y="237.7" width="269.0" height="20" fill="#2563A6"/><rect x="1099.0" y="237.7" width="121.0" height="20" fill="#D49A27"/><text x="1232.0" y="252.7" text-anchor="start" fill="#80601F" font-family="Arial, Helvetica, sans-serif" font-size="13" font-weight="650">31% tax</text><text x="237.0" y="311.2" text-anchor="end" fill="#252A31" font-family="Arial, Helvetica, sans-serif" font-size="14" font-weight="560">GLM-5.2 [max]</text><line x1="255.0" y1="306.2" x2="301.1" y2="306.2" stroke="#DCE9F5" stroke-width="5"/><circle cx="301.1" cy="306.2" r="7" fill="#2563A6"/><text x="312.1" y="311.2" text-anchor="start" fill="#2563A6" font-family="Arial, Helvetica, sans-serif" font-size="13" font-weight="650">$8.95</text><rect x="830" y="296.2" width="173.2" height="20" fill="#2563A6"/><rect x="1003.2" y="296.2" width="216.8" height="20" fill="#D49A27"/><text x="1232.0" y="311.2" text-anchor="start" fill="#80601F" font-family="Arial, Helvetica, sans-serif" font-size="13" font-weight="650">56% tax</text><rect x="18" y="335.4" width="1284" height="58.5" fill="#F7F8F9"/><text x="237.0" y="369.6" text-anchor="end" fill="#252A31" font-family="Arial, Helvetica, sans-serif" font-size="14" font-weight="560">Kimi K2.7 Code [default]</text><line x1="255.0" y1="364.6" x2="302.4" y2="364.6" stroke="#DCE9F5" stroke-width="5"/><circle cx="302.4" cy="364.6" r="7" fill="#2563A6"/><text x="313.4" y="369.6" text-anchor="start" fill="#2563A6" font-family="Arial, Helvetica, sans-serif" font-size="13" font-weight="650">$9.22</text><rect x="830" y="354.6" width="103.0" height="20" fill="#2563A6"/><rect x="933.0" y="354.6" width="287.0" height="20" fill="#D49A27"/><text x="1232.0" y="369.6" text-anchor="start" fill="#80601F" font-family="Arial, Helvetica, sans-serif" font-size="13" font-weight="650">74% tax</text><text x="237.0" y="428.1" text-anchor="end" fill="#252A31" font-family="Arial, Helvetica, sans-serif" font-size="14" font-weight="560">GPT-5.5 [xhigh]</text><line x1="255.0" y1="423.1" x2="310.5" y2="423.1" stroke="#DCE9F5" stroke-width="5"/><circle cx="310.5" cy="423.1" r="7" fill="#2563A6"/><text x="321.5" y="428.1" text-anchor="start" fill="#2563A6" font-family="Arial, Helvetica, sans-serif" font-size="13" font-weight="650">$10.78</text><rect x="830" y="413.1" width="273.4" height="20" fill="#2563A6"/><rect x="1103.4" y="413.1" width="116.6" height="20" fill="#D49A27"/><text x="1232.0" y="428.1" text-anchor="start" fill="#80601F" font-family="Arial, Helvetica, sans-serif" font-size="13" font-weight="650">30% tax</text><rect x="18" y="452.3" width="1284" height="58.5" fill="#F7F8F9"/><text x="237.0" y="486.5" text-anchor="end" fill="#252A31" font-family="Arial, Helvetica, sans-serif" font-size="14" font-weight="560">GPT-5.4 [xhigh]</text><line x1="255.0" y1="481.5" x2="311.2" y2="481.5" stroke="#DCE9F5" stroke-width="5"/><circle cx="311.2" cy="481.5" r="7" fill="#2563A6"/><text x="322.2" y="486.5" text-anchor="start" fill="#2563A6" font-family="Arial, Helvetica, sans-serif" font-size="13" font-weight="650">$10.92</text><rect x="830" y="471.5" width="211.2" height="20" fill="#2563A6"/><rect x="1041.2" y="471.5" width="178.8" height="20" fill="#D49A27"/><text x="1232.0" y="486.5" text-anchor="start" fill="#80601F" font-family="Arial, Helvetica, sans-serif" font-size="13" font-weight="650">46% tax</text><text x="237.0" y="545.0" text-anchor="end" fill="#252A31" font-family="Arial, Helvetica, sans-serif" font-size="14" font-weight="560">GPT-5.6 Sol [max]</text><line x1="255.0" y1="540.0" x2="314.4" y2="540.0" stroke="#DCE9F5" stroke-width="5"/><circle cx="314.4" cy="540.0" r="7" fill="#2563A6"/><text x="325.4" y="545.0" text-anchor="start" fill="#2563A6" font-family="Arial, Helvetica, sans-serif" font-size="13" font-weight="650">$11.54</text><rect x="830" y="530.0" width="282.5" height="20" fill="#2563A6"/><rect x="1112.5" y="530.0" width="107.5" height="20" fill="#D49A27"/><text x="1232.0" y="545.0" text-anchor="start" fill="#80601F" font-family="Arial, Helvetica, sans-serif" font-size="13" font-weight="650">28% tax</text><rect x="18" y="569.2" width="1284" height="58.5" fill="#F7F8F9"/><text x="237.0" y="603.5" text-anchor="end" fill="#252A31" font-family="Arial, Helvetica, sans-serif" font-size="14" font-weight="560">Claude Sonnet 4.6 [high]</text><line x1="255.0" y1="598.5" x2="349.9" y2="598.5" stroke="#DCE9F5" stroke-width="5"/><circle cx="349.9" cy="598.5" r="7" fill="#2563A6"/><text x="360.9" y="603.5" text-anchor="start" fill="#2563A6" font-family="Arial, Helvetica, sans-serif" font-size="13" font-weight="650">$18.45</text><rect x="830" y="588.5" width="116.9" height="20" fill="#2563A6"/><rect x="946.9" y="588.5" width="273.1" height="20" fill="#D49A27"/><text x="1232.0" y="603.5" text-anchor="start" fill="#80601F" font-family="Arial, Helvetica, sans-serif" font-size="13" font-weight="650">70% tax</text><text x="237.0" y="661.9" text-anchor="end" fill="#252A31" font-family="Arial, Helvetica, sans-serif" font-size="14" font-weight="560">Claude Fable 5 [xhigh]</text><line x1="255.0" y1="656.9" x2="353.7" y2="656.9" stroke="#DCE9F5" stroke-width="5"/><circle cx="353.7" cy="656.9" r="7" fill="#2563A6"/><text x="364.7" y="661.9" text-anchor="start" fill="#2563A6" font-family="Arial, Helvetica, sans-serif" font-size="13" font-weight="650">$19.19</text><rect x="830" y="646.9" width="276.6" height="20" fill="#2563A6"/><rect x="1106.6" y="646.9" width="113.4" height="20" fill="#D49A27"/><text x="1232.0" y="661.9" text-anchor="start" fill="#80601F" font-family="Arial, Helvetica, sans-serif" font-size="13" font-weight="650">29% tax</text><rect x="18" y="686.2" width="1284" height="58.5" fill="#F7F8F9"/><text x="237.0" y="720.4" text-anchor="end" fill="#252A31" font-family="Arial, Helvetica, sans-serif" font-size="14" font-weight="560">Gemini 3.5 Flash [medium]</text><line x1="255.0" y1="715.4" x2="356.0" y2="715.4" stroke="#DCE9F5" stroke-width="5"/><circle cx="356.0" cy="715.4" r="7" fill="#2563A6"/><text x="367.0" y="720.4" text-anchor="start" fill="#2563A6" font-family="Arial, Helvetica, sans-serif" font-size="13" font-weight="650">$19.64</text><rect x="830" y="705.4" width="132.6" height="20" fill="#2563A6"/><rect x="962.6" y="705.4" width="257.4" height="20" fill="#D49A27"/><text x="1232.0" y="720.4" text-anchor="start" fill="#80601F" font-family="Arial, Helvetica, sans-serif" font-size="13" font-weight="650">66% tax</text><text x="237.0" y="778.8" text-anchor="end" fill="#252A31" font-family="Arial, Helvetica, sans-serif" font-size="14" font-weight="560">Claude Opus 4.8 [max]</text><line x1="255.0" y1="773.8" x2="370.4" y2="773.8" stroke="#DCE9F5" stroke-width="5"/><circle cx="370.4" cy="773.8" r="7" fill="#2563A6"/><text x="381.4" y="778.8" text-anchor="start" fill="#2563A6" font-family="Arial, Helvetica, sans-serif" font-size="13" font-weight="650">$22.42</text><rect x="830" y="763.8" width="231.2" height="20" fill="#2563A6"/><rect x="1061.2" y="763.8" width="158.8" height="20" fill="#D49A27"/><text x="1232.0" y="778.8" text-anchor="start" fill="#80601F" font-family="Arial, Helvetica, sans-serif" font-size="13" font-weight="650">41% tax</text><rect x="18" y="803.1" width="1284" height="58.5" fill="#F7F8F9"/><text x="237.0" y="837.3" text-anchor="end" fill="#252A31" font-family="Arial, Helvetica, sans-serif" font-size="14" font-weight="560">Claude Sonnet 5 [max]</text><line x1="255.0" y1="832.3" x2="507.2" y2="832.3" stroke="#DCE9F5" stroke-width="5"/><circle cx="507.2" cy="832.3" r="7" fill="#2563A6"/><text x="518.2" y="837.3" text-anchor="start" fill="#2563A6" font-family="Arial, Helvetica, sans-serif" font-size="13" font-weight="650">$49.03</text><rect x="830" y="822.3" width="219.5" height="20" fill="#2563A6"/><rect x="1049.5" y="822.3" width="170.5" height="20" fill="#D49A27"/><text x="1232.0" y="837.3" text-anchor="start" fill="#80601F" font-family="Arial, Helvetica, sans-serif" font-size="13" font-weight="650">44% tax</text><text x="237.0" y="895.8" text-anchor="end" fill="#252A31" font-family="Arial, Helvetica, sans-serif" font-size="14" font-weight="560">Gemini 3.1 Pro Preview [high]</text><line x1="255.0" y1="890.8" x2="670.1" y2="890.8" stroke="#DCE9F5" stroke-width="5"/><circle cx="670.1" cy="890.8" r="7" fill="#2563A6"/><text x="681.1" y="895.8" text-anchor="start" fill="#2563A6" font-family="Arial, Helvetica, sans-serif" font-size="13" font-weight="650">$80.68</text><rect x="830" y="880.8" width="60.9" height="20" fill="#2563A6"/><rect x="890.9" y="880.8" width="329.1" height="20" fill="#D49A27"/><text x="1232.0" y="895.8" text-anchor="start" fill="#80601F" font-family="Arial, Helvetica, sans-serif" font-size="13" font-weight="650">84% tax</text><rect x="830" y="105" width="18" height="12" fill="#2563A6"/><text x="856.0" y="116.0" text-anchor="start" fill="#252A31" font-family="Arial, Helvetica, sans-serif" font-size="13" font-weight="400">Conditional successful spend</text><rect x="1035" y="105" width="18" height="12" fill="#D49A27"/><text x="1061.0" y="116.0" text-anchor="start" fill="#252A31" font-family="Arial, Helvetica, sans-serif" font-size="13" font-weight="400">Realized reliability tax</text><text x="18.0" y="988.0" text-anchor="start" fill="#5D6670" font-family="Arial, Helvetica, sans-serif" font-size="13" font-weight="400">Best-per-model selection is descriptive. Tax share is a cost composition, not an efficiency rank, and rises mechanically as pass rate falls.</text></svg>
