<svg xmlns="http://www.w3.org/2000/svg" width="1420" height="820" viewBox="0 0 1420 820" role="img" aria-label="Reported invoice and agent-work frontiers"><rect x="0" y="0" width="1420" height="820" fill="#FFFFFF"/><text x="28.0" y="48.0" text-anchor="start" fill="#252A31" font-family="Arial, Helvetica, sans-serif" font-size="28" font-weight="700">Reported invoice and agent-work frontiers</text><text x="28.0" y="80.0" text-anchor="start" fill="#5D6670" font-family="Arial, Helvetica, sans-serif" font-size="16" font-weight="400">Dollar surface: 41 configurations. Step surface: 40 configurations with complete step fields. Lower is better on the vertical axis.</text><text x="105.0" y="118.0" text-anchor="start" fill="#252A31" font-family="Arial, Helvetica, sans-serif" font-size="18" font-weight="700">Reported invoice per verified success</text><text x="105.0" y="145.0" text-anchor="start" fill="#5D6670" font-family="Arial, Helvetica, sans-serif" font-size="13" font-weight="400">USD, log scale</text><line x1="105.0" y1="180.0" x2="105.0" y2="695.0" stroke="#E5E8EB" stroke-width="1"/><text x="105.0" y="727.0" text-anchor="middle" fill="#252A31" font-family="Arial, Helvetica, sans-serif" font-size="16" font-weight="400">0%</text><line x1="245.0" y1="180.0" x2="245.0" y2="695.0" stroke="#E5E8EB" stroke-width="1"/><text x="245.0" y="727.0" text-anchor="middle" fill="#252A31" font-family="Arial, Helvetica, sans-serif" font-size="16" font-weight="400">20%</text><line x1="385.0" y1="180.0" x2="385.0" y2="695.0" stroke="#E5E8EB" stroke-width="1"/><text x="385.0" y="727.0" text-anchor="middle" fill="#252A31" font-family="Arial, Helvetica, sans-serif" font-size="16" font-weight="400">40%</text><line x1="525.0" y1="180.0" x2="525.0" y2="695.0" stroke="#E5E8EB" stroke-width="1"/><text x="525.0" y="727.0" text-anchor="middle" fill="#252A31" font-family="Arial, Helvetica, sans-serif" font-size="16" font-weight="400">60%</text><line x1="665.0" y1="180.0" x2="665.0" y2="695.0" stroke="#E5E8EB" stroke-width="1"/><text x="665.0" y="727.0" text-anchor="middle" fill="#252A31" font-family="Arial, Helvetica, sans-serif" font-size="16" font-weight="400">80%</text><line x1="105.0" y1="695.0" x2="665.0" y2="695.0" stroke="#E5E8EB" stroke-width="1"/><text x="91.0" y="700.0" text-anchor="end" fill="#252A31" font-family="Arial, Helvetica, sans-serif" font-size="16" font-weight="400">$1</text><line x1="105.0" y1="617.5" x2="665.0" y2="617.5" stroke="#E5E8EB" stroke-width="1"/><text x="91.0" y="622.5" text-anchor="end" fill="#252A31" font-family="Arial, Helvetica, sans-serif" font-size="16" font-weight="400">$2</text><line x1="105.0" y1="515.0" x2="665.0" y2="515.0" stroke="#E5E8EB" stroke-width="1"/><text x="91.0" y="520.0" text-anchor="end" fill="#252A31" font-family="Arial, Helvetica, sans-serif" font-size="16" font-weight="400">$5</text><line x1="105.0" y1="437.5" x2="665.0" y2="437.5" stroke="#E5E8EB" stroke-width="1"/><text x="91.0" y="442.5" text-anchor="end" fill="#252A31" font-family="Arial, Helvetica, sans-serif" font-size="16" font-weight="400">$10</text><line x1="105.0" y1="335.0" x2="665.0" y2="335.0" stroke="#E5E8EB" stroke-width="1"/><text x="91.0" y="340.0" text-anchor="end" fill="#252A31" font-family="Arial, Helvetica, sans-serif" font-size="16" font-weight="400">$25</text><line x1="105.0" y1="257.5" x2="665.0" y2="257.5" stroke="#E5E8EB" stroke-width="1"/><text x="91.0" y="262.5" text-anchor="end" fill="#252A31" font-family="Arial, Helvetica, sans-serif" font-size="16" font-weight="400">$50</text><line x1="105.0" y1="180.0" x2="665.0" y2="180.0" stroke="#E5E8EB" stroke-width="1"/><text x="91.0" y="185.0" text-anchor="end" fill="#252A31" font-family="Arial, Helvetica, sans-serif" font-size="16" font-weight="400">$100</text><line x1="105.0" y1="695.0" x2="665.0" y2="695.0" stroke="#252A31" stroke-width="2"/><line x1="105.0" y1="180.0" x2="105.0" y2="695.0" stroke="#252A31" stroke-width="2"/><text x="385.0" y="762.0" text-anchor="middle" fill="#252A31" font-family="Arial, Helvetica, sans-serif" font-size="17" font-weight="400">Attempt solve rate</text><path d="M 350.8 638.2 L 414.7 631.9 L 481.3 611.5 L 503.0 583.9 L 532.4 570.3 L 575.3 526.6 L 590.8 515.0 L 600.1 483.1 L 613.7 421.5" fill="none" stroke="#D49A27" stroke-width="2.5" stroke-linejoin="round" opacity="0.78"/><circle cx="585.2" cy="405.0" r="4.5" fill="#89919A" stroke="white" stroke-width="1" opacity="0.58"/><circle cx="522.1" cy="489.0" r="4.5" fill="#89919A" stroke="white" stroke-width="1" opacity="0.58"/><circle cx="593.1" cy="310.9" r="4.5" fill="#89919A" stroke="white" stroke-width="1" opacity="0.58"/><circle cx="562.6" cy="445.4" r="4.5" fill="#89919A" stroke="white" stroke-width="1" opacity="0.58"/><circle cx="594.4" cy="364.6" r="4.5" fill="#89919A" stroke="white" stroke-width="1" opacity="0.58"/><circle cx="467.4" cy="458.7" r="4.5" fill="#89919A" stroke="white" stroke-width="1" opacity="0.58"/><circle cx="390.6" cy="501.9" r="4.5" fill="#89919A" stroke="white" stroke-width="1" opacity="0.58"/><circle cx="517.8" cy="347.2" r="4.5" fill="#89919A" stroke="white" stroke-width="1" opacity="0.58"/><circle cx="445.7" cy="476.2" r="4.5" fill="#89919A" stroke="white" stroke-width="1" opacity="0.58"/><circle cx="485.5" cy="394.2" r="4.5" fill="#89919A" stroke="white" stroke-width="1" opacity="0.58"/><circle cx="314.5" cy="369.0" r="4.5" fill="#89919A" stroke="white" stroke-width="1" opacity="0.58"/><circle cx="442.6" cy="389.2" r="4.5" fill="#89919A" stroke="white" stroke-width="1" opacity="0.58"/><circle cx="318.6" cy="474.8" r="4.5" fill="#89919A" stroke="white" stroke-width="1" opacity="0.58"/><circle cx="481.9" cy="259.7" r="4.5" fill="#89919A" stroke="white" stroke-width="1" opacity="0.58"/><circle cx="383.4" cy="434.7" r="4.5" fill="#89919A" stroke="white" stroke-width="1" opacity="0.58"/><circle cx="452.7" cy="339.9" r="4.5" fill="#89919A" stroke="white" stroke-width="1" opacity="0.58"/><circle cx="187.3" cy="204.0" r="4.5" fill="#89919A" stroke="white" stroke-width="1" opacity="0.58"/><circle cx="366.7" cy="362.0" r="4.5" fill="#89919A" stroke="white" stroke-width="1" opacity="0.58"/><circle cx="359.0" cy="465.1" r="4.5" fill="#89919A" stroke="white" stroke-width="1" opacity="0.58"/><circle cx="411.4" cy="449.9" r="4.5" fill="#89919A" stroke="white" stroke-width="1" opacity="0.58"/><circle cx="467.4" cy="427.7" r="4.5" fill="#89919A" stroke="white" stroke-width="1" opacity="0.58"/><circle cx="555.7" cy="463.5" r="4.5" fill="#89919A" stroke="white" stroke-width="1" opacity="0.58"/><circle cx="293.9" cy="528.1" r="4.5" fill="#89919A" stroke="white" stroke-width="1" opacity="0.58"/><circle cx="482.9" cy="513.0" r="4.5" fill="#89919A" stroke="white" stroke-width="1" opacity="0.58"/><circle cx="574.2" cy="429.1" r="4.5" fill="#89919A" stroke="white" stroke-width="1" opacity="0.58"/><circle cx="414.7" cy="631.9" r="6.5" fill="#D49A27" stroke="white" stroke-width="1.5"/><circle cx="115.8" cy="522.5" r="4.5" fill="#89919A" stroke="white" stroke-width="1" opacity="0.58"/><circle cx="575.3" cy="526.6" r="6.5" fill="#D49A27" stroke="white" stroke-width="1.5"/><text x="567.3" y="514.6" text-anchor="end" fill="#D49A27" font-family="Arial, Helvetica, sans-serif" font-size="12" font-weight="650">GPT-5.6 Luna [max]</text><circle cx="184.0" cy="622.2" r="4.5" fill="#89919A" stroke="white" stroke-width="1" opacity="0.58"/><circle cx="503.0" cy="583.9" r="6.5" fill="#D49A27" stroke="white" stroke-width="1.5"/><circle cx="590.8" cy="515.0" r="6.5" fill="#D49A27" stroke="white" stroke-width="1.5"/><text x="598.8" y="539.0" text-anchor="start" fill="#D49A27" font-family="Arial, Helvetica, sans-serif" font-size="12" font-weight="650">GPT-5.6 Sol [high]</text><circle cx="422.5" cy="598.6" r="4.5" fill="#89919A" stroke="white" stroke-width="1" opacity="0.58"/><circle cx="613.7" cy="421.5" r="6.5" fill="#D49A27" stroke="white" stroke-width="1.5"/><text x="605.7" y="409.5" text-anchor="end" fill="#D49A27" font-family="Arial, Helvetica, sans-serif" font-size="12" font-weight="650">GPT-5.6 Sol [max]</text><circle cx="532.4" cy="570.3" r="6.5" fill="#D49A27" stroke="white" stroke-width="1.5"/><circle cx="600.1" cy="483.1" r="6.5" fill="#D49A27" stroke="white" stroke-width="1.5"/><circle cx="481.3" cy="611.5" r="6.5" fill="#D49A27" stroke="white" stroke-width="1.5"/><circle cx="273.4" cy="630.6" r="4.5" fill="#89919A" stroke="white" stroke-width="1" opacity="0.58"/><circle cx="592.4" cy="475.7" r="4.5" fill="#89919A" stroke="white" stroke-width="1" opacity="0.58"/><circle cx="350.8" cy="638.2" r="6.5" fill="#D49A27" stroke="white" stroke-width="1.5"/><text x="342.8" y="662.2" text-anchor="end" fill="#D49A27" font-family="Arial, Helvetica, sans-serif" font-size="12" font-weight="650">GPT-5.6 Terra [medium]</text><circle cx="526.2" cy="553.8" r="4.5" fill="#89919A" stroke="white" stroke-width="1" opacity="0.58"/><circle cx="318.7" cy="446.6" r="4.5" fill="#89919A" stroke="white" stroke-width="1" opacity="0.58"/><text x="790.0" y="118.0" text-anchor="start" fill="#252A31" font-family="Arial, Helvetica, sans-serif" font-size="18" font-weight="700">Agent steps per verified success</text><text x="790.0" y="145.0" text-anchor="start" fill="#5D6670" font-family="Arial, Helvetica, sans-serif" font-size="13" font-weight="400">Steps, log scale</text><line x1="790.0" y1="180.0" x2="790.0" y2="695.0" stroke="#E5E8EB" stroke-width="1"/><text x="790.0" y="727.0" text-anchor="middle" fill="#252A31" font-family="Arial, Helvetica, sans-serif" font-size="16" font-weight="400">0%</text><line x1="930.0" y1="180.0" x2="930.0" y2="695.0" stroke="#E5E8EB" stroke-width="1"/><text x="930.0" y="727.0" text-anchor="middle" fill="#252A31" font-family="Arial, Helvetica, sans-serif" font-size="16" font-weight="400">20%</text><line x1="1070.0" y1="180.0" x2="1070.0" y2="695.0" stroke="#E5E8EB" stroke-width="1"/><text x="1070.0" y="727.0" text-anchor="middle" fill="#252A31" font-family="Arial, Helvetica, sans-serif" font-size="16" font-weight="400">40%</text><line x1="1210.0" y1="180.0" x2="1210.0" y2="695.0" stroke="#E5E8EB" stroke-width="1"/><text x="1210.0" y="727.0" text-anchor="middle" fill="#252A31" font-family="Arial, Helvetica, sans-serif" font-size="16" font-weight="400">60%</text><line x1="1350.0" y1="180.0" x2="1350.0" y2="695.0" stroke="#E5E8EB" stroke-width="1"/><text x="1350.0" y="727.0" text-anchor="middle" fill="#252A31" font-family="Arial, Helvetica, sans-serif" font-size="16" font-weight="400">80%</text><line x1="790.0" y1="670.0" x2="1350.0" y2="670.0" stroke="#E5E8EB" stroke-width="1"/><text x="776.0" y="675.0" text-anchor="end" fill="#252A31" font-family="Arial, Helvetica, sans-serif" font-size="16" font-weight="400">50</text><line x1="790.0" y1="592.5" x2="1350.0" y2="592.5" stroke="#E5E8EB" stroke-width="1"/><text x="776.0" y="597.5" text-anchor="end" fill="#252A31" font-family="Arial, Helvetica, sans-serif" font-size="16" font-weight="400">100</text><line x1="790.0" y1="490.1" x2="1350.0" y2="490.1" stroke="#E5E8EB" stroke-width="1"/><text x="776.0" y="495.1" text-anchor="end" fill="#252A31" font-family="Arial, Helvetica, sans-serif" font-size="16" font-weight="400">250</text><line x1="790.0" y1="412.5" x2="1350.0" y2="412.5" stroke="#E5E8EB" stroke-width="1"/><text x="776.0" y="417.5" text-anchor="end" fill="#252A31" font-family="Arial, Helvetica, sans-serif" font-size="16" font-weight="400">500</text><line x1="790.0" y1="335.0" x2="1350.0" y2="335.0" stroke="#E5E8EB" stroke-width="1"/><text x="776.0" y="340.0" text-anchor="end" fill="#252A31" font-family="Arial, Helvetica, sans-serif" font-size="16" font-weight="400">1000</text><line x1="790.0" y1="232.6" x2="1350.0" y2="232.6" stroke="#E5E8EB" stroke-width="1"/><text x="776.0" y="237.6" text-anchor="end" fill="#252A31" font-family="Arial, Helvetica, sans-serif" font-size="16" font-weight="400">2500</text><line x1="790.0" y1="695.0" x2="1350.0" y2="695.0" stroke="#252A31" stroke-width="2"/><line x1="790.0" y1="180.0" x2="790.0" y2="695.0" stroke="#252A31" stroke-width="2"/><text x="1070.0" y="762.0" text-anchor="middle" fill="#252A31" font-family="Arial, Helvetica, sans-serif" font-size="17" font-weight="400">Attempt solve rate</text><path d="M 1217.4 668.7 L 1275.8 663.2 L 1285.1 645.6 L 1298.7 611.6" fill="none" stroke="#2563A6" stroke-width="2.5" stroke-linejoin="round" opacity="0.78"/><circle cx="1270.2" cy="609.9" r="4.5" fill="#89919A" stroke="white" stroke-width="1" opacity="0.58"/><circle cx="1207.1" cy="643.4" r="4.5" fill="#89919A" stroke="white" stroke-width="1" opacity="0.58"/><circle cx="1278.1" cy="566.0" r="4.5" fill="#89919A" stroke="white" stroke-width="1" opacity="0.58"/><circle cx="1247.6" cy="626.2" r="4.5" fill="#89919A" stroke="white" stroke-width="1" opacity="0.58"/><circle cx="1279.4" cy="595.0" r="4.5" fill="#89919A" stroke="white" stroke-width="1" opacity="0.58"/><circle cx="1152.4" cy="554.9" r="4.5" fill="#89919A" stroke="white" stroke-width="1" opacity="0.58"/><circle cx="1075.6" cy="561.2" r="4.5" fill="#89919A" stroke="white" stroke-width="1" opacity="0.58"/><circle cx="1202.8" cy="513.1" r="4.5" fill="#89919A" stroke="white" stroke-width="1" opacity="0.58"/><circle cx="1130.7" cy="559.2" r="4.5" fill="#89919A" stroke="white" stroke-width="1" opacity="0.58"/><circle cx="1170.5" cy="530.5" r="4.5" fill="#89919A" stroke="white" stroke-width="1" opacity="0.58"/><circle cx="999.5" cy="425.2" r="4.5" fill="#89919A" stroke="white" stroke-width="1" opacity="0.58"/><circle cx="1003.6" cy="489.2" r="4.5" fill="#89919A" stroke="white" stroke-width="1" opacity="0.58"/><circle cx="1166.9" cy="412.9" r="4.5" fill="#89919A" stroke="white" stroke-width="1" opacity="0.58"/><circle cx="1068.4" cy="481.2" r="4.5" fill="#89919A" stroke="white" stroke-width="1" opacity="0.58"/><circle cx="1137.7" cy="445.2" r="4.5" fill="#89919A" stroke="white" stroke-width="1" opacity="0.58"/><circle cx="872.3" cy="376.1" r="4.5" fill="#89919A" stroke="white" stroke-width="1" opacity="0.58"/><circle cx="1051.7" cy="499.7" r="4.5" fill="#89919A" stroke="white" stroke-width="1" opacity="0.58"/><circle cx="1044.0" cy="457.0" r="4.5" fill="#89919A" stroke="white" stroke-width="1" opacity="0.58"/><circle cx="1096.4" cy="471.6" r="4.5" fill="#89919A" stroke="white" stroke-width="1" opacity="0.58"/><circle cx="1152.4" cy="558.0" r="4.5" fill="#89919A" stroke="white" stroke-width="1" opacity="0.58"/><circle cx="1240.7" cy="596.9" r="4.5" fill="#89919A" stroke="white" stroke-width="1" opacity="0.58"/><circle cx="978.9" cy="588.2" r="4.5" fill="#89919A" stroke="white" stroke-width="1" opacity="0.58"/><circle cx="1167.9" cy="610.5" r="4.5" fill="#89919A" stroke="white" stroke-width="1" opacity="0.58"/><circle cx="1259.2" cy="570.0" r="4.5" fill="#89919A" stroke="white" stroke-width="1" opacity="0.58"/><circle cx="1099.7" cy="581.1" r="4.5" fill="#89919A" stroke="white" stroke-width="1" opacity="0.58"/><circle cx="800.8" cy="359.3" r="4.5" fill="#89919A" stroke="white" stroke-width="1" opacity="0.58"/><circle cx="1260.3" cy="546.2" r="4.5" fill="#89919A" stroke="white" stroke-width="1" opacity="0.58"/><circle cx="869.0" cy="509.6" r="4.5" fill="#89919A" stroke="white" stroke-width="1" opacity="0.58"/><circle cx="1188.0" cy="567.5" r="4.5" fill="#89919A" stroke="white" stroke-width="1" opacity="0.58"/><circle cx="1275.8" cy="663.2" r="6.5" fill="#2563A6" stroke="white" stroke-width="1.5"/><text x="1283.8" y="651.2" text-anchor="start" fill="#2563A6" font-family="Arial, Helvetica, sans-serif" font-size="12" font-weight="650">GPT-5.6 Sol [high]</text><circle cx="1107.5" cy="666.7" r="4.5" fill="#89919A" stroke="white" stroke-width="1" opacity="0.58"/><circle cx="1298.7" cy="611.6" r="6.5" fill="#2563A6" stroke="white" stroke-width="1.5"/><text x="1290.7" y="599.6" text-anchor="end" fill="#2563A6" font-family="Arial, Helvetica, sans-serif" font-size="12" font-weight="650">GPT-5.6 Sol [max]</text><circle cx="1217.4" cy="668.7" r="6.5" fill="#2563A6" stroke="white" stroke-width="1.5"/><text x="1209.4" y="656.7" text-anchor="end" fill="#2563A6" font-family="Arial, Helvetica, sans-serif" font-size="12" font-weight="650">GPT-5.6 Sol [medium]</text><circle cx="1285.1" cy="645.6" r="6.5" fill="#2563A6" stroke="white" stroke-width="1.5"/><text x="1293.1" y="668.6" text-anchor="start" fill="#2563A6" font-family="Arial, Helvetica, sans-serif" font-size="12" font-weight="650">GPT-5.6 Sol [xhigh]</text><circle cx="1166.3" cy="645.4" r="4.5" fill="#89919A" stroke="white" stroke-width="1" opacity="0.58"/><circle cx="958.4" cy="605.3" r="4.5" fill="#89919A" stroke="white" stroke-width="1" opacity="0.58"/><circle cx="1277.4" cy="582.8" r="4.5" fill="#89919A" stroke="white" stroke-width="1" opacity="0.58"/><circle cx="1035.8" cy="629.9" r="4.5" fill="#89919A" stroke="white" stroke-width="1" opacity="0.58"/><circle cx="1211.2" cy="629.9" r="4.5" fill="#89919A" stroke="white" stroke-width="1" opacity="0.58"/><circle cx="1003.7" cy="415.2" r="4.5" fill="#89919A" stroke="white" stroke-width="1" opacity="0.58"/><text x="105.0" y="808.0" text-anchor="start" fill="#5D6670" font-family="Arial, Helvetica, sans-serif" font-size="13" font-weight="400">Provider-reported dollars answer the invoice question. Agent steps are a behavioral work proxy, not a common-price reconstruction or a FLOP measure.</text></svg>
