<svg xmlns="http://www.w3.org/2000/svg" width="1200" height="850" viewBox="0 0 1200 850" role="img" aria-label="Rank association depends on the comparison panel"><rect x="0" y="0" width="1200" height="850" fill="#FFFFFF"/><text x="28.0" y="48.0" text-anchor="start" fill="#252A31" font-family="Arial, Helvetica, sans-serif" font-size="28" font-weight="700">Rank association depends on the comparison panel</text><text x="28.0" y="80.0" text-anchor="start" fill="#5D6670" font-family="Arial, Helvetica, sans-serif" font-size="16" font-weight="400">All 41 configurations: rho -0.18 [-0.27, -0.04]. Fixed 13-model panel: +0.31 [+0.21, +0.50].</text><line x1="120.0" y1="145.0" x2="120.0" y2="745.0" stroke="#E5E8EB" stroke-width="1"/><line x1="120.0" y1="145.0" x2="1130.0" y2="145.0" stroke="#E5E8EB" stroke-width="1"/><text x="120.0" y="779.0" text-anchor="middle" fill="#252A31" font-family="Arial, Helvetica, sans-serif" font-size="16" font-weight="400">1</text><text x="96.0" y="151.0" text-anchor="end" fill="#252A31" font-family="Arial, Helvetica, sans-serif" font-size="16" font-weight="400">1</text><line x1="347.2" y1="145.0" x2="347.2" y2="745.0" stroke="#E5E8EB" stroke-width="1"/><line x1="120.0" y1="280.0" x2="1130.0" y2="280.0" stroke="#E5E8EB" stroke-width="1"/><text x="347.2" y="779.0" text-anchor="middle" fill="#252A31" font-family="Arial, Helvetica, sans-serif" font-size="16" font-weight="400">10</text><text x="96.0" y="286.0" text-anchor="end" fill="#252A31" font-family="Arial, Helvetica, sans-serif" font-size="16" font-weight="400">10</text><line x1="599.8" y1="145.0" x2="599.8" y2="745.0" stroke="#E5E8EB" stroke-width="1"/><line x1="120.0" y1="430.0" x2="1130.0" y2="430.0" stroke="#E5E8EB" stroke-width="1"/><text x="599.8" y="779.0" text-anchor="middle" fill="#252A31" font-family="Arial, Helvetica, sans-serif" font-size="16" font-weight="400">20</text><text x="96.0" y="436.0" text-anchor="end" fill="#252A31" font-family="Arial, Helvetica, sans-serif" font-size="16" font-weight="400">20</text><line x1="852.2" y1="145.0" x2="852.2" y2="745.0" stroke="#E5E8EB" stroke-width="1"/><line x1="120.0" y1="580.0" x2="1130.0" y2="580.0" stroke="#E5E8EB" stroke-width="1"/><text x="852.2" y="779.0" text-anchor="middle" fill="#252A31" font-family="Arial, Helvetica, sans-serif" font-size="16" font-weight="400">30</text><text x="96.0" y="586.0" text-anchor="end" fill="#252A31" font-family="Arial, Helvetica, sans-serif" font-size="16" font-weight="400">30</text><line x1="1104.8" y1="145.0" x2="1104.8" y2="745.0" stroke="#E5E8EB" stroke-width="1"/><line x1="120.0" y1="730.0" x2="1130.0" y2="730.0" stroke="#E5E8EB" stroke-width="1"/><text x="1104.8" y="779.0" text-anchor="middle" fill="#252A31" font-family="Arial, Helvetica, sans-serif" font-size="16" font-weight="400">40</text><text x="96.0" y="736.0" text-anchor="end" fill="#252A31" font-family="Arial, Helvetica, sans-serif" font-size="16" font-weight="400">40</text><line x1="120.0" y1="145.0" x2="1130.0" y2="745.0" stroke="#89919A" stroke-width="2" stroke-dasharray="8 7"/><line x1="120.0" y1="745.0" x2="1130.0" y2="745.0" stroke="#252A31" stroke-width="2"/><line x1="120.0" y1="145.0" x2="120.0" y2="745.0" stroke="#252A31" stroke-width="2"/><text x="625.0" y="818.0" text-anchor="middle" fill="#252A31" font-family="Arial, Helvetica, sans-serif" font-size="19" font-weight="400">Pass-rate rank</text><text x="29.0" y="445.0" text-anchor="middle" fill="#252A31" font-family="Arial, Helvetica, sans-serif" font-size="19" font-weight="400" transform="rotate(-90 29 445.0)">Realized-CPSC rank</text><circle cx="271.5" cy="595.0" r="5" fill="#89919A" stroke="white" stroke-width="1" opacity="0.92"/><circle cx="448.2" cy="370.0" r="5" fill="#89919A" stroke="white" stroke-width="1" opacity="0.92"/><circle cx="195.8" cy="715.0" r="5" fill="#89919A" stroke="white" stroke-width="1" opacity="0.92"/><circle cx="347.2" cy="520.0" r="5" fill="#89919A" stroke="white" stroke-width="1" opacity="0.92"/><circle cx="170.5" cy="655.0" r="5" fill="#89919A" stroke="white" stroke-width="1" opacity="0.92"/><circle cx="637.6" cy="475.0" r="5" fill="#89919A" stroke="white" stroke-width="1" opacity="0.92"/><circle cx="827.0" cy="355.0" r="5" fill="#89919A" stroke="white" stroke-width="1" opacity="0.92"/><circle cx="473.5" cy="685.0" r="5" fill="#89919A" stroke="white" stroke-width="1" opacity="0.92"/><circle cx="700.8" cy="400.0" r="5" fill="#89919A" stroke="white" stroke-width="1" opacity="0.92"/><circle cx="524.0" cy="610.0" r="5" fill="#89919A" stroke="white" stroke-width="1" opacity="0.92"/><circle cx="1003.8" cy="640.0" r="5" fill="#89919A" stroke="white" stroke-width="1" opacity="0.92"/><circle cx="726.0" cy="625.0" r="5" fill="#89919A" stroke="white" stroke-width="1" opacity="0.92"/><circle cx="978.5" cy="430.0" r="5" fill="#89919A" stroke="white" stroke-width="1" opacity="0.92"/><circle cx="574.5" cy="730.0" r="5" fill="#89919A" stroke="white" stroke-width="1" opacity="0.92"/><circle cx="852.2" cy="535.0" r="5" fill="#89919A" stroke="white" stroke-width="1" opacity="0.92"/><circle cx="675.5" cy="700.0" r="5" fill="#89919A" stroke="white" stroke-width="1" opacity="0.92"/><circle cx="1079.5" cy="745.0" r="5" fill="#89919A" stroke="white" stroke-width="1" opacity="0.92"/><circle cx="877.5" cy="670.0" r="5" fill="#89919A" stroke="white" stroke-width="1" opacity="0.92"/><circle cx="902.8" cy="445.0" r="5" fill="#89919A" stroke="white" stroke-width="1" opacity="0.92"/><circle cx="801.8" cy="490.0" r="5" fill="#89919A" stroke="white" stroke-width="1" opacity="0.92"/><circle cx="637.6" cy="565.0" r="5" fill="#89919A" stroke="white" stroke-width="1" opacity="0.92"/><circle cx="372.5" cy="460.0" r="5" fill="#89919A" stroke="white" stroke-width="1" opacity="0.92"/><circle cx="1029.0" cy="280.0" r="5" fill="#89919A" stroke="white" stroke-width="1" opacity="0.92"/><circle cx="549.2" cy="340.0" r="5" fill="#89919A" stroke="white" stroke-width="1" opacity="0.92"/><circle cx="322.0" cy="550.0" r="5" fill="#89919A" stroke="white" stroke-width="1" opacity="0.92"/><circle cx="776.5" cy="160.0" r="8" fill="#6F7E3F" stroke="#6F7E3F" stroke-width="2" opacity="0.92"/><text x="786.5" y="186.0" text-anchor="start" fill="#6F7E3F" font-family="Arial, Helvetica, sans-serif" font-size="15" font-weight="650">GPT-5.6 Luna [high]</text><circle cx="1130.0" cy="310.0" r="5" fill="white" stroke="#252A31" stroke-width="2" opacity="0.92"/><circle cx="296.8" cy="295.0" r="8" fill="#D49A27" stroke="#D49A27" stroke-width="2" opacity="0.92"/><text x="306.8" y="281.0" text-anchor="start" fill="#D49A27" font-family="Arial, Helvetica, sans-serif" font-size="15" font-weight="650">GPT-5.6 Luna [max]</text><circle cx="1104.8" cy="190.0" r="5" fill="white" stroke="#252A31" stroke-width="2" opacity="0.92"/><circle cx="498.8" cy="235.0" r="5" fill="white" stroke="#252A31" stroke-width="2" opacity="0.92"/><circle cx="246.2" cy="325.0" r="5" fill="white" stroke="#252A31" stroke-width="2" opacity="0.92"/><circle cx="751.2" cy="220.0" r="5" fill="white" stroke="#252A31" stroke-width="2" opacity="0.92"/><circle cx="120.0" cy="580.0" r="8" fill="#2563A6" stroke="#2563A6" stroke-width="2" opacity="0.92"/><text x="130.0" y="564.0" text-anchor="start" fill="#2563A6" font-family="Arial, Helvetica, sans-serif" font-size="15" font-weight="650">GPT-5.6 Sol [max]</text><circle cx="397.8" cy="250.0" r="5" fill="white" stroke="#252A31" stroke-width="2" opacity="0.92"/><circle cx="145.2" cy="385.0" r="5" fill="white" stroke="#252A31" stroke-width="2" opacity="0.92"/><circle cx="599.8" cy="205.0" r="5" fill="white" stroke="#252A31" stroke-width="2" opacity="0.92"/><circle cx="1054.2" cy="175.0" r="5" fill="white" stroke="#252A31" stroke-width="2" opacity="0.92"/><circle cx="221.0" cy="415.0" r="5" fill="#89919A" stroke="white" stroke-width="1" opacity="0.92"/><circle cx="928.0" cy="145.0" r="8" fill="#C9673B" stroke="#C9673B" stroke-width="2" opacity="0.92"/><text x="938.0" y="171.0" text-anchor="start" fill="#C9673B" font-family="Arial, Helvetica, sans-serif" font-size="15" font-weight="650">GPT-5.6 Terra [medium]</text><circle cx="423.0" cy="265.0" r="5" fill="#89919A" stroke="white" stroke-width="1" opacity="0.92"/><circle cx="953.2" cy="505.0" r="5" fill="#89919A" stroke="white" stroke-width="1" opacity="0.92"/><text x="138.0" y="171.0" text-anchor="start" fill="#89919A" font-family="Arial, Helvetica, sans-serif" font-size="14" font-weight="400">Ranks match</text><text x="120.0" y="840.0" text-anchor="start" fill="#5D6670" font-family="Arial, Helvetica, sans-serif" font-size="13" font-weight="400">Task-bootstrap intervals assess suite composition. The sign flip and pooled within-model rho of -0.68 show that effort scaling drives the all-config result.</text></svg>
