<svg xmlns="http://www.w3.org/2000/svg" width="1320" height="810" viewBox="0 0 1320 810" role="img" aria-label="Reliability requirements change both the choice and whether a choice exists"><rect x="0" y="0" width="1320" height="810" fill="#FFFFFF"/><text x="28.0" y="48.0" text-anchor="start" fill="#252A31" font-family="Arial, Helvetica, sans-serif" font-size="28" font-weight="700">Reliability requirements change both the choice and whether a choice exists</text><text x="28.0" y="80.0" text-anchor="start" fill="#5D6670" font-family="Arial, Helvetica, sans-serif" font-size="16" font-weight="400">Panel A uses the observed point policy. Panel B reselects the policy in each task bootstrap and includes an explicit no-eligible outcome.</text><text x="92.0" y="126.0" text-anchor="start" fill="#252A31" font-family="Arial, Helvetica, sans-serif" font-size="17" font-weight="700">Panel A</text><text x="174.0" y="126.0" text-anchor="start" fill="#252A31" font-family="Arial, Helvetica, sans-serif" font-size="17" font-weight="600">Observed minimum-CPSC policy</text><line x1="92.0" y1="680.0" x2="612.0" y2="680.0" stroke="#E5E8EB" stroke-width="1"/><text x="74.0" y="686.0" text-anchor="end" fill="#252A31" font-family="Arial, Helvetica, sans-serif" font-size="16" font-weight="400">$0</text><line x1="92.0" y1="555.0" x2="612.0" y2="555.0" stroke="#E5E8EB" stroke-width="1"/><text x="74.0" y="561.0" text-anchor="end" fill="#252A31" font-family="Arial, Helvetica, sans-serif" font-size="16" font-weight="400">$2</text><line x1="92.0" y1="430.0" x2="612.0" y2="430.0" stroke="#E5E8EB" stroke-width="1"/><text x="74.0" y="436.0" text-anchor="end" fill="#252A31" font-family="Arial, Helvetica, sans-serif" font-size="16" font-weight="400">$4</text><line x1="92.0" y1="305.0" x2="612.0" y2="305.0" stroke="#E5E8EB" stroke-width="1"/><text x="74.0" y="311.0" text-anchor="end" fill="#252A31" font-family="Arial, Helvetica, sans-serif" font-size="16" font-weight="400">$6</text><line x1="92.0" y1="180.0" x2="612.0" y2="180.0" stroke="#E5E8EB" stroke-width="1"/><text x="74.0" y="186.0" text-anchor="end" fill="#252A31" font-family="Arial, Helvetica, sans-serif" font-size="16" font-weight="400">$8</text><text x="92.0" y="715.0" text-anchor="middle" fill="#252A31" font-family="Arial, Helvetica, sans-serif" font-size="16" font-weight="400">0%</text><text x="161.3" y="715.0" text-anchor="middle" fill="#252A31" font-family="Arial, Helvetica, sans-serif" font-size="16" font-weight="400">10%</text><text x="230.7" y="715.0" text-anchor="middle" fill="#252A31" font-family="Arial, Helvetica, sans-serif" font-size="16" font-weight="400">20%</text><text x="300.0" y="715.0" text-anchor="middle" fill="#252A31" font-family="Arial, Helvetica, sans-serif" font-size="16" font-weight="400">30%</text><text x="369.3" y="715.0" text-anchor="middle" fill="#252A31" font-family="Arial, Helvetica, sans-serif" font-size="16" font-weight="400">40%</text><text x="438.7" y="715.0" text-anchor="middle" fill="#252A31" font-family="Arial, Helvetica, sans-serif" font-size="16" font-weight="400">50%</text><text x="508.0" y="715.0" text-anchor="middle" fill="#252A31" font-family="Arial, Helvetica, sans-serif" font-size="16" font-weight="400">60%</text><text x="577.3" y="715.0" text-anchor="middle" fill="#252A31" font-family="Arial, Helvetica, sans-serif" font-size="16" font-weight="400">70%</text><line x1="92.0" y1="680.0" x2="612.0" y2="680.0" stroke="#252A31" stroke-width="2"/><line x1="92.0" y1="180.0" x2="92.0" y2="680.0" stroke="#252A31" stroke-width="2"/><text x="352.0" y="754.0" text-anchor="middle" fill="#252A31" font-family="Arial, Helvetica, sans-serif" font-size="17" font-weight="400">Required minimum solve rate</text><text x="28.0" y="430.0" text-anchor="middle" fill="#252A31" font-family="Arial, Helvetica, sans-serif" font-size="17" font-weight="400" transform="rotate(-90 28 430.0)">Minimum realized CPSC (USD)</text><path d="M 92.0 576.2 H 126.7 V 576.2 H 161.3 V 576.2 H 196.0 V 576.2 H 230.7 V 576.2 H 265.3 V 576.2 H 300.0 V 576.2 H 334.7 V 576.2 H 369.3 V 570.1 H 404.0 V 548.1 H 438.7 V 548.1 H 473.3 V 511.2 H 508.0 V 489.4 H 542.7 V 398.3 H 577.3 V 264.4" fill="none" stroke="#2563A6" stroke-width="4" stroke-linejoin="round"/><circle cx="92.0" cy="576.2" r="5" fill="#2563A6"/><circle cx="126.7" cy="576.2" r="5" fill="#2563A6"/><circle cx="161.3" cy="576.2" r="5" fill="#2563A6"/><circle cx="196.0" cy="576.2" r="5" fill="#2563A6"/><circle cx="230.7" cy="576.2" r="5" fill="#2563A6"/><circle cx="265.3" cy="576.2" r="5" fill="#2563A6"/><circle cx="300.0" cy="576.2" r="5" fill="#2563A6"/><circle cx="334.7" cy="576.2" r="5" fill="#2563A6"/><circle cx="369.3" cy="570.1" r="5" fill="#2563A6"/><circle cx="404.0" cy="548.1" r="5" fill="#2563A6"/><circle cx="438.7" cy="548.1" r="5" fill="#2563A6"/><circle cx="473.3" cy="511.2" r="5" fill="#2563A6"/><circle cx="508.0" cy="489.4" r="5" fill="#2563A6"/><circle cx="542.7" cy="398.3" r="5" fill="#2563A6"/><circle cx="577.3" cy="264.4" r="5" fill="#2563A6"/><text x="100.0" y="558.2" text-anchor="start" fill="#2563A6" font-family="Arial, Helvetica, sans-serif" font-size="12" font-weight="650">Terra [medium]  $1.66</text><text x="377.3" y="602.1" text-anchor="start" fill="#2563A6" font-family="Arial, Helvetica, sans-serif" font-size="12" font-weight="650">Luna [high]  $1.76</text><text x="412.0" y="528.1" text-anchor="start" fill="#2563A6" font-family="Arial, Helvetica, sans-serif" font-size="12" font-weight="650">Terra [high]  $2.11</text><text x="481.3" y="545.2" text-anchor="start" fill="#2563A6" font-family="Arial, Helvetica, sans-serif" font-size="12" font-weight="650">Luna [xhigh]  $2.70</text><text x="516.0" y="469.4" text-anchor="start" fill="#2563A6" font-family="Arial, Helvetica, sans-serif" font-size="12" font-weight="650">Sol [medium]  $3.05</text><text x="534.7" y="428.3" text-anchor="end" fill="#2563A6" font-family="Arial, Helvetica, sans-serif" font-size="12" font-weight="650">Luna [max]  $4.51</text><text x="569.3" y="246.4" text-anchor="end" fill="#2563A6" font-family="Arial, Helvetica, sans-serif" font-size="12" font-weight="650">Sol [xhigh]  $6.65</text><line x1="605.0" y1="651.1" x2="619.0" y2="665.1" stroke="#C9673B" stroke-width="3"/><line x1="605.0" y1="665.1" x2="619.0" y2="651.1" stroke="#C9673B" stroke-width="3"/><text x="604.0" y="640.1" text-anchor="end" fill="#C9673B" font-family="Arial, Helvetica, sans-serif" font-size="13" font-weight="650">No eligible configuration</text><text x="735.0" y="126.0" text-anchor="start" fill="#252A31" font-family="Arial, Helvetica, sans-serif" font-size="17" font-weight="700">Panel B</text><text x="817.0" y="126.0" text-anchor="start" fill="#252A31" font-family="Arial, Helvetica, sans-serif" font-size="17" font-weight="600">Bootstrap selection composition</text><text x="717.0" y="277.0" text-anchor="end" fill="#252A31" font-family="Arial, Helvetica, sans-serif" font-size="16" font-weight="650">65%</text><rect x="735.0" y="235.0" width="298.1" height="68" fill="#D49A27"/><text x="884.0" y="277.0" text-anchor="middle" fill="#252A31" font-family="Arial, Helvetica, sans-serif" font-size="13" font-weight="700">57%</text><rect x="1033.1" y="235.0" width="98.5" height="68" fill="#86B6DA"/><text x="1082.3" y="277.0" text-anchor="middle" fill="#252A31" font-family="Arial, Helvetica, sans-serif" font-size="13" font-weight="700">19%</text><rect x="1131.6" y="235.0" width="14.5" height="68" fill="#2563A6"/><rect x="1146.1" y="235.0" width="4.2" height="68" fill="#173F6B"/><rect x="1150.3" y="235.0" width="103.4" height="68" fill="#89919A"/><text x="1202.0" y="277.0" text-anchor="middle" fill="#252A31" font-family="Arial, Helvetica, sans-serif" font-size="13" font-weight="700">20%</text><rect x="1253.6" y="235.0" width="1.4" height="68" fill="#C9673B"/><rect x="735" y="235" width="520" height="68" fill="none" stroke="#252A31" stroke-width="1"/><text x="717.0" y="373.0" text-anchor="end" fill="#252A31" font-family="Arial, Helvetica, sans-serif" font-size="16" font-weight="650">70%</text><rect x="735.0" y="331.0" width="95.5" height="68" fill="#D49A27"/><text x="782.8" y="373.0" text-anchor="middle" fill="#252A31" font-family="Arial, Helvetica, sans-serif" font-size="13" font-weight="700">18%</text><rect x="830.5" y="331.0" width="155.2" height="68" fill="#86B6DA"/><text x="908.1" y="373.0" text-anchor="middle" fill="#252A31" font-family="Arial, Helvetica, sans-serif" font-size="13" font-weight="700">30%</text><rect x="985.7" y="331.0" width="85.1" height="68" fill="#2563A6"/><text x="1028.3" y="373.0" text-anchor="middle" fill="white" font-family="Arial, Helvetica, sans-serif" font-size="13" font-weight="700">16%</text><rect x="1070.8" y="331.0" width="62.7" height="68" fill="#173F6B"/><text x="1102.1" y="373.0" text-anchor="middle" fill="white" font-family="Arial, Helvetica, sans-serif" font-size="13" font-weight="700">12%</text><rect x="1133.5" y="331.0" width="60.6" height="68" fill="#89919A"/><text x="1163.8" y="373.0" text-anchor="middle" fill="#252A31" font-family="Arial, Helvetica, sans-serif" font-size="13" font-weight="700">12%</text><rect x="1194.1" y="331.0" width="60.9" height="68" fill="#C9673B"/><text x="1224.6" y="373.0" text-anchor="middle" fill="#252A31" font-family="Arial, Helvetica, sans-serif" font-size="13" font-weight="700">12%</text><rect x="735" y="331" width="520" height="68" fill="none" stroke="#252A31" stroke-width="1"/><text x="717.0" y="469.0" text-anchor="end" fill="#252A31" font-family="Arial, Helvetica, sans-serif" font-size="16" font-weight="650">75%</text><rect x="735.0" y="427.0" width="3.8" height="68" fill="#D49A27"/><rect x="738.8" y="427.0" width="25.7" height="68" fill="#86B6DA"/><rect x="764.6" y="427.0" width="39.7" height="68" fill="#2563A6"/><text x="784.4" y="469.0" text-anchor="middle" fill="white" font-family="Arial, Helvetica, sans-serif" font-size="13" font-weight="700">8%</text><rect x="804.3" y="427.0" width="69.0" height="68" fill="#173F6B"/><text x="838.7" y="469.0" text-anchor="middle" fill="white" font-family="Arial, Helvetica, sans-serif" font-size="13" font-weight="700">13%</text><rect x="873.2" y="427.0" width="33.0" height="68" fill="#89919A"/><rect x="906.2" y="427.0" width="348.8" height="68" fill="#C9673B"/><text x="1080.6" y="469.0" text-anchor="middle" fill="#252A31" font-family="Arial, Helvetica, sans-serif" font-size="13" font-weight="700">67%</text><rect x="735" y="427" width="520" height="68" fill="none" stroke="#252A31" stroke-width="1"/><rect x="735" y="542" width="18" height="14" fill="#D49A27"/><text x="762.0" y="555.0" text-anchor="start" fill="#252A31" font-family="Arial, Helvetica, sans-serif" font-size="13" font-weight="400">Luna max</text><rect x="910" y="542" width="18" height="14" fill="#86B6DA"/><text x="937.0" y="555.0" text-anchor="start" fill="#252A31" font-family="Arial, Helvetica, sans-serif" font-size="13" font-weight="400">Sol high</text><rect x="1085" y="542" width="18" height="14" fill="#2563A6"/><text x="1112.0" y="555.0" text-anchor="start" fill="#252A31" font-family="Arial, Helvetica, sans-serif" font-size="13" font-weight="400">Sol xhigh</text><rect x="735" y="576" width="18" height="14" fill="#173F6B"/><text x="762.0" y="589.0" text-anchor="start" fill="#252A31" font-family="Arial, Helvetica, sans-serif" font-size="13" font-weight="400">Sol max</text><rect x="910" y="576" width="18" height="14" fill="#89919A"/><text x="937.0" y="589.0" text-anchor="start" fill="#252A31" font-family="Arial, Helvetica, sans-serif" font-size="13" font-weight="400">Other eligible</text><rect x="1085" y="576" width="18" height="14" fill="#C9673B"/><text x="1112.0" y="589.0" text-anchor="start" fill="#252A31" font-family="Arial, Helvetica, sans-serif" font-size="13" font-weight="400">No eligible</text><text x="735.0" y="652.0" text-anchor="start" fill="#5D6670" font-family="Arial, Helvetica, sans-serif" font-size="13" font-weight="400">Shares use all bootstrap replicates; conditional shares exclude no-eligible draws.</text><text x="92.0" y="798.0" text-anchor="start" fill="#5D6670" font-family="Arial, Helvetica, sans-serif" font-size="13" font-weight="400">Eligibility and pass rate are recomputed for each resampled task mixture, so a configuration below a floor in the full sample can still be selected in a draw.</text></svg>
