<svg xmlns="http://www.w3.org/2000/svg" width="1300" height="650" viewBox="0 0 1300 650" role="img" aria-label="Task coverage reveals different solved-task footprints"><rect x="0" y="0" width="1300" height="650" fill="#FFFFFF"/><text x="28.0" y="48.0" text-anchor="start" fill="#252A31" font-family="Arial, Helvetica, sans-serif" font-size="28" font-weight="700">Task coverage reveals different solved-task footprints</text><text x="28.0" y="80.0" text-anchor="start" fill="#5D6670" font-family="Arial, Helvetica, sans-serif" font-size="16" font-weight="400">Four-run cells are split by observed successes. Coverage is the share of 113 tasks solved at least once.</text><text x="270.0" y="132.0" text-anchor="start" fill="#252A31" font-family="Arial, Helvetica, sans-serif" font-size="16" font-weight="650">Task outcome pattern</text><text x="970.0" y="132.0" text-anchor="start" fill="#252A31" font-family="Arial, Helvetica, sans-serif" font-size="16" font-weight="650">Any-success task coverage</text><rect x="270" y="145" width="14" height="14" fill="#C9673B"/><text x="291.0" y="158.0" text-anchor="start" fill="#252A31" font-family="Arial, Helvetica, sans-serif" font-size="12" font-weight="400">0/4</text><rect x="382" y="145" width="14" height="14" fill="#D49A27"/><text x="403.0" y="158.0" text-anchor="start" fill="#252A31" font-family="Arial, Helvetica, sans-serif" font-size="12" font-weight="400">1-3/4</text><rect x="494" y="145" width="14" height="14" fill="#2563A6"/><text x="515.0" y="158.0" text-anchor="start" fill="#252A31" font-family="Arial, Helvetica, sans-serif" font-size="12" font-weight="400">4/4</text><rect x="606" y="145" width="14" height="14" fill="#89919A"/><text x="627.0" y="158.0" text-anchor="start" fill="#252A31" font-family="Arial, Helvetica, sans-serif" font-size="12" font-weight="400">incomplete/excluded</text><text x="238.0" y="228.5" text-anchor="end" fill="#252A31" font-family="Arial, Helvetica, sans-serif" font-size="16" font-weight="650">GPT-5.6 Sol [max]</text><rect x="270.0" y="207.5" width="87.8" height="30" fill="#C9673B"/><text x="313.9" y="227.5" text-anchor="middle" fill="white" font-family="Arial, Helvetica, sans-serif" font-size="12" font-weight="650">16</text><rect x="357.8" y="207.5" width="192.0" height="30" fill="#D49A27"/><text x="453.8" y="227.5" text-anchor="middle" fill="#252A31" font-family="Arial, Helvetica, sans-serif" font-size="12" font-weight="650">35</text><rect x="549.8" y="207.5" width="334.7" height="30" fill="#2563A6"/><text x="717.2" y="227.5" text-anchor="middle" fill="white" font-family="Arial, Helvetica, sans-serif" font-size="12" font-weight="650">61</text><rect x="884.5" y="207.5" width="5.5" height="30" fill="#89919A"/><line x1="970.0" y1="222.5" x2="1215.0" y2="222.5" stroke="#E5E8EB" stroke-width="5"/><circle cx="1180.3" cy="222.5" r="8" fill="#252A31"/><text x="1227.0" y="228.5" text-anchor="start" fill="#252A31" font-family="Arial, Helvetica, sans-serif" font-size="15" font-weight="650">86%</text><text x="238.0" y="313.5" text-anchor="end" fill="#252A31" font-family="Arial, Helvetica, sans-serif" font-size="16" font-weight="650">GPT-5.6 Luna [max]</text><rect x="270.0" y="292.5" width="60.4" height="30" fill="#C9673B"/><text x="300.2" y="312.5" text-anchor="middle" fill="white" font-family="Arial, Helvetica, sans-serif" font-size="12" font-weight="650">11</text><rect x="330.4" y="292.5" width="323.7" height="30" fill="#D49A27"/><text x="492.2" y="312.5" text-anchor="middle" fill="#252A31" font-family="Arial, Helvetica, sans-serif" font-size="12" font-weight="650">59</text><rect x="654.1" y="292.5" width="225.0" height="30" fill="#2563A6"/><text x="766.5" y="312.5" text-anchor="middle" fill="white" font-family="Arial, Helvetica, sans-serif" font-size="12" font-weight="650">41</text><rect x="879.0" y="292.5" width="11.0" height="30" fill="#89919A"/><line x1="970.0" y1="307.5" x2="1215.0" y2="307.5" stroke="#E5E8EB" stroke-width="5"/><circle cx="1191.2" cy="307.5" r="8" fill="#252A31"/><text x="1227.0" y="313.5" text-anchor="start" fill="#252A31" font-family="Arial, Helvetica, sans-serif" font-size="15" font-weight="650">90%</text><text x="238.0" y="398.5" text-anchor="end" fill="#252A31" font-family="Arial, Helvetica, sans-serif" font-size="16" font-weight="650">GPT-5.6 Terra [medium]</text><rect x="270.0" y="377.5" width="235.9" height="30" fill="#C9673B"/><text x="388.0" y="397.5" text-anchor="middle" fill="white" font-family="Arial, Helvetica, sans-serif" font-size="12" font-weight="650">43</text><rect x="505.9" y="377.5" width="296.3" height="30" fill="#D49A27"/><text x="654.1" y="397.5" text-anchor="middle" fill="#252A31" font-family="Arial, Helvetica, sans-serif" font-size="12" font-weight="650">54</text><rect x="802.2" y="377.5" width="76.8" height="30" fill="#2563A6"/><text x="840.6" y="397.5" text-anchor="middle" fill="white" font-family="Arial, Helvetica, sans-serif" font-size="12" font-weight="650">14</text><rect x="879.0" y="377.5" width="11.0" height="30" fill="#89919A"/><line x1="970.0" y1="392.5" x2="1215.0" y2="392.5" stroke="#E5E8EB" stroke-width="5"/><circle cx="1117.4" cy="392.5" r="8" fill="#252A31"/><text x="1227.0" y="398.5" text-anchor="start" fill="#252A31" font-family="Arial, Helvetica, sans-serif" font-size="15" font-weight="650">60%</text><text x="238.0" y="483.5" text-anchor="end" fill="#252A31" font-family="Arial, Helvetica, sans-serif" font-size="16" font-weight="650">GPT-5.6 Luna [high]</text><rect x="270.0" y="462.5" width="153.6" height="30" fill="#C9673B"/><text x="346.8" y="482.5" text-anchor="middle" fill="white" font-family="Arial, Helvetica, sans-serif" font-size="12" font-weight="650">28</text><rect x="423.6" y="462.5" width="367.6" height="30" fill="#D49A27"/><text x="607.4" y="482.5" text-anchor="middle" fill="#252A31" font-family="Arial, Helvetica, sans-serif" font-size="12" font-weight="650">67</text><rect x="791.2" y="462.5" width="98.8" height="30" fill="#2563A6"/><text x="840.6" y="482.5" text-anchor="middle" fill="white" font-family="Arial, Helvetica, sans-serif" font-size="12" font-weight="650">18</text><line x1="970.0" y1="477.5" x2="1215.0" y2="477.5" stroke="#E5E8EB" stroke-width="5"/><circle cx="1154.3" cy="477.5" r="8" fill="#252A31"/><text x="1227.0" y="483.5" text-anchor="start" fill="#252A31" font-family="Arial, Helvetica, sans-serif" font-size="15" font-weight="650">75%</text><text x="32.0" y="622.0" text-anchor="start" fill="#5D6670" font-family="Arial, Helvetica, sans-serif" font-size="14" font-weight="400">Luna max / Sol max overlap: 92 tasks, Jaccard 0.86;  Terra medium / Sol max: 63 tasks, Jaccard 0.62</text></svg>
